<?xml version="1.0" encoding="iso-8859-1"?>
<!-- Generator: Adobe Illustrator 16.0.0, SVG Export Plug-In . SVG Version: 6.00 Build 0)  -->
<!DOCTYPE svg PUBLIC "-//W3C//DTD SVG 1.1//EN" "http://www.w3.org/Graphics/SVG/1.1/DTD/svg11.dtd">
<svg width="200" height="200" viewBox="0 0 20 20" fill="none" xmlns="http://www.w3.org/2000/svg">
	<path d="M10.2227 18.7402C14.0762 18.7402 17.3594 16.4843 18.6211 13.332L18.6074 13.3281C18.6855 13.1836 18.7402 13.0254 18.7402 12.8515C18.7402 12.2519 18.2129 11.7656 17.5605 11.7656C17.0371 11.7656 16.6074 12.0859 16.4551 12.5214L16.4395 12.5156C15.5293 14.8711 13.0898 16.5683 10.2227 16.5683C6.58203 16.5683 3.61914 13.8379 3.61914 10.4824C3.61914 7.12692 6.58203 4.39645 10.2227 4.39645C11.0215 4.39645 11.7813 4.54098 12.4922 4.78121L11.6602 6.24996C11.5625 6.34567 11.5039 6.47653 11.5039 6.6191C11.5039 6.92184 11.832 7.15621 12.1055 7.16207H12.1426L18.0312 6.92965C18.2422 6.92184 18.4316 6.81051 18.5293 6.63864C18.627 6.46676 18.6172 6.25973 18.5039 6.09567L15.3398 1.51168C15.2266 1.34762 15.0273 1.25387 14.8164 1.26168C14.6055 1.2695 14.416 1.38082 14.3184 1.5527L13.5918 2.83785C12.5508 2.44723 11.4141 2.22653 10.2227 2.22653C5.28125 2.22653 1.26172 5.9316 1.26172 10.4843C1.26172 15.0351 5.28125 18.7402 10.2227 18.7402Z" fill="#1677FF"/>
</svg>
