<?xml version="1.0" encoding="iso-8859-1"?>
<!-- Generator: Adobe Illustrator 16.0.0, SVG Export Plug-In . SVG Version: 6.00 Build 0)  -->
<!DOCTYPE svg PUBLIC "-//W3C//DTD SVG 1.1//EN" "http://www.w3.org/Graphics/SVG/1.1/DTD/svg11.dtd">
<svg width="512" height="512" viewBox="0 0 20 20" fill="none" xmlns="http://www.w3.org/2000/svg">
	<g clip-path="url(#clip0_5143_3941)">
		<path d="M17.7038 0.563712L1.47913 5.55405C0.350129 5.90138 0.144796 7.41071 1.14013 8.04705L5.9338 11.1114C6.18308 11.2707 6.47678 11.3461 6.77198 11.3265C7.06717 11.307 7.34837 11.1935 7.57446 11.0027L13.5575 5.95405C13.8818 5.68038 14.3195 6.11771 14.0458 6.44238L8.99746 12.4264C8.80669 12.6524 8.69326 12.9336 8.67377 13.2287C8.65428 13.5239 8.72974 13.8175 8.88913 14.0667L11.9528 18.8597C12.5888 19.8547 14.0985 19.6494 14.4458 18.5207L19.4361 2.29638C19.7631 1.23271 18.7671 0.236712 17.7038 0.563712Z" fill="#1677FF"/>
	</g>
	<defs>
		<clipPath id="clip0_5143_3941">
			<rect width="20" height="20" fill="white"/>
		</clipPath>
	</defs>
</svg>