<svg width="50" height="50" viewBox="0 0 50 50" fill="none" xmlns="http://www.w3.org/2000/svg">
    <g filter="url(#filter0_d_5143_3852)">
        <path fill-rule="evenodd" clip-rule="evenodd" d="M41.6473 10.9761C42.032 10.6151 42.2411 10.1101 42.2411 9.58247C42.2411 7.8834 40.1965 6.90969 38.8106 7.8926C36.9264 9.2289 34.4825 10.7794 32.0471 11.8045C30.6167 11.542 29.0845 11.4041 27.4523 11.4052H27.4531C25.7597 11.4064 24.1714 11.5424 22.6907 11.8035C20.2561 10.7784 17.8132 9.22845 15.9296 7.8926C14.5437 6.90969 12.4991 7.8834 12.4991 9.58247C12.4991 10.1101 12.7082 10.6151 13.093 10.9761C13.7754 11.6164 14.9983 12.7247 16.5121 13.9264C11.6158 16.6456 8.80283 21.4056 8.28944 27.4216C6.80061 44.8786 47.9651 44.8404 46.4488 27.4216C45.9551 21.7488 43.1341 16.8226 38.1579 13.982C39.704 12.759 40.9544 11.6263 41.6473 10.9761Z" fill="url(#paint0_linear_5143_3852)"/>
    </g>
    <path d="M20.8263 21.3399C21.3774 21.3399 21.906 21.5588 22.2958 21.9486C22.6855 22.3383 22.9045 22.8669 22.9045 23.4181V27.5745C22.9045 28.1257 22.6855 28.6543 22.2958 29.044C21.906 29.4338 21.3774 29.6527 20.8263 29.6527C20.2751 29.6527 19.7465 29.4338 19.3567 29.044C18.967 28.6543 18.748 28.1257 18.748 27.5745V23.4181C18.748 22.8669 18.967 22.3383 19.3567 21.9486C19.7465 21.5588 20.2751 21.3399 20.8263 21.3399ZM35.0246 21.4097C35.3837 21.6628 35.6341 22.042 35.7259 22.4716C35.8178 22.9011 35.7443 23.3495 35.5201 23.7273L35.4453 23.842L34.4552 25.2461L35.4943 26.8912C35.7291 27.2625 35.8153 27.7087 35.7357 28.1408C35.656 28.5728 35.4163 28.959 35.0645 29.2221L34.9515 29.2994C34.5801 29.5342 34.1338 29.6202 33.7017 29.5404C33.2697 29.4606 32.8836 29.2208 32.6206 28.8688L32.5432 28.7566L30.8807 26.1273C30.7089 25.8556 30.6154 25.5418 30.6106 25.2204C30.6057 24.8991 30.6897 24.5826 30.8532 24.3059L30.9297 24.1879L32.5923 21.8303C32.8591 21.4521 33.2652 21.1952 33.7214 21.1164C34.1775 21.0375 34.6463 21.143 35.0246 21.4097Z" fill="white"/>
    <defs>
        <filter id="filter0_d_5143_3852" x="0.25" y="1.5" width="54.2393" height="49" filterUnits="userSpaceOnUse" color-interpolation-filters="sRGB">
            <feFlood flood-opacity="0" result="BackgroundImageFix"/>
            <feColorMatrix in="SourceAlpha" type="matrix" values="0 0 0 0 0 0 0 0 0 0 0 0 0 0 0 0 0 0 127 0" result="hardAlpha"/>
            <feOffset dy="2"/>
            <feGaussianBlur stdDeviation="4"/>
            <feComposite in2="hardAlpha" operator="out"/>
            <feColorMatrix type="matrix" values="0 0 0 0 0.5 0 0 0 0 0.866667 0 0 0 0 1 0 0 0 0.8 0"/>
            <feBlend mode="normal" in2="BackgroundImageFix" result="effect1_dropShadow_5143_3852"/>
            <feBlend mode="normal" in="SourceGraphic" in2="effect1_dropShadow_5143_3852" result="shape"/>
        </filter>
        <linearGradient id="paint0_linear_5143_3852" x1="13.2653" y1="12.3062" x2="41.4751" y2="12.3062" gradientUnits="userSpaceOnUse">
            <stop stop-color="#1677FF"/>
            <stop offset="1" stop-color="#16ECFF"/>
        </linearGradient>
    </defs>
</svg>